<?xml version="1.0" standalone="no"?>
<!DOCTYPE svg PUBLIC "-//W3C//DTD SVG 1.1//EN" "http://www.w3.org/Graphics/SVG/1.1/DTD/svg11.dtd">
<svg width="100%" height="100%" viewBox="75 -30 120 120" version="1.1" xmlns="http://www.w3.org/2000/svg" xmlns:xlink="http://www.w3.org/1999/xlink" xml:space="preserve" style="fill-rule:evenodd;clip-rule:evenodd;stroke-linejoin:round;stroke-miterlimit:1.41421;">
    <g id="path3709" transform="matrix(0.672848,0,0,0.672848,2.76005,0.987243)">
        <path d="M259.355,15.996C251.943,9.826 240.533,5.695 225.153,3.588L213.851,39.523C213.607,40.841 213.187,42.338 212.536,44.063C211.383,46.946 209.994,49.321 208.362,51.19C206.728,53.064 204.899,54.525 202.873,55.59C200.845,56.649 198.641,57.38 196.259,57.783C193.877,58.183 191.412,58.309 188.866,58.161C186.317,58.013 184.149,57.666 182.365,57.119C180.579,56.573 178.937,55.667 177.44,54.399C176.333,53.154 175.689,51.521 175.513,49.497C175.336,47.473 175.826,44.97 176.984,41.988C178.019,39.396 179.329,37.136 180.917,35.217C182.504,33.296 184.36,31.806 186.482,30.75C188.509,29.691 190.688,28.982 193.021,28.625C195.348,28.271 197.936,28.177 200.777,28.342C203.129,28.481 205.319,28.827 207.351,29.39C208.315,29.655 209.159,30.003 209.893,30.423L218.57,2.832C216.428,2.63 214.237,2.453 211.961,2.322C190.06,1.043 171.653,3.573 156.732,9.898C141.814,16.228 131.867,25.613 126.899,38.052C125.408,41.866 124.607,45.46 124.489,48.837L124.479,48.832C123.053,73.295 138.774,87.077 148.486,93.205C152.383,95.814 155.848,97.106 155.848,97.106L160.299,82.881L161.615,79.385C167.474,80.493 173.99,81.264 181.188,81.683C203.241,82.969 221.727,80.451 236.646,74.119C251.562,67.794 261.426,58.481 266.237,46.177C271.043,33.882 268.751,23.82 259.355,15.996L259.355,15.996Z" style="fill:url(#_Linear1);fill-rule:nonzero;"/>
    </g>
    <defs>
        <linearGradient id="_Linear1" x1="0" y1="0" x2="1" y2="0" gradientUnits="userSpaceOnUse" gradientTransform="matrix(5.82365e-15,-95.1074,95.1074,5.82365e-15,196.532,97.1074)">
            <stop offset="0%" style="stop-color:rgb(142,142,142);stop-opacity:1"/>
            <stop offset="0%" style="stop-color:rgb(142,142,142);stop-opacity:1"/>
            <stop offset="100%" style="stop-color:rgb(181,181,181);stop-opacity:1"/>
        </linearGradient>
    </defs>
</svg>
